<svg id="Layer_1" enable-background="new 0 0 0" height="100" viewBox="0 0 512 512" width="512" fill="#3d4a3e" xmlns="http://www.w3.org/2000/svg"><g id="XMLID_170_"><g id="XMLID_313_"><path id="XMLID_1142_" d="m432.095 290.795c4.719-10.63 7.403-22.685 7.403-34.096 0-14.773-4.596-29.165-13.052-41.168 2.868-7.299 4.365-15.139 4.365-22.999 0-16.54-6.435-31.597-16.919-42.828h8.104c17.645 0 32-14.355 32-32s-14.355-32-32-32h-29.873v-19.415c0-28.995-23.59-52.585-52.585-52.585h-74.831c-28.995 0-52.584 23.59-52.584 52.585v19.415h-30.127c-4.318 0-8.436.864-12.198 2.421-.194-1.016-.527-2.012-1.041-2.945l-19.347-35.18 19.349-35.181c1.704-3.098 1.646-6.865-.153-9.909-1.8-3.043-5.073-4.91-8.608-4.91h-120c-5.522 0-10 4.478-10 10v149.209c-.797.239-1.592.494-2.38.782-21.758 7.934-33.004 32.09-25.069 53.847.014.04.029.079.044.119l44.857 118.334c8.035 21.197 27.02 35.95 49.544 38.502l63.004 7.138v124.069c0 5.522 4.478 10 10 10h332c5.522 0 10-4.478 10-10v-96.956c-.001-52.413-33.328-97.188-79.903-114.249zm-241.336-7.373c-3.805-8.285-6.009-17.919-6.009-26.723 0-12.199 4.354-24.038 12.258-33.337 2.635-3.099 3.13-7.486 1.251-11.095-3.2-6.146-4.822-12.785-4.822-19.735 0-16.288 9.141-30.478 22.561-37.718v25.353c0 33.035 18.733 61.762 46.125 76.161v27.094zm177.224-133.718h.014v30.462c0 36.393-29.607 66-66 66s-66-29.607-66-66v-30.456c.09 0 .178-.007.268-.007h131.718zm-46.049 142.466-19.938 19.938-19.875-19.875v-28.409c6.384 1.517 13.033 2.344 19.875 2.344 6.864 0 13.534-.832 19.938-2.358zm-56.908 11.252 22.828 22.828-27.213 27.213-32.291-50.041zm73.942 0h36.675l-32.29 50.041-27.213-27.213zm57.362.179c9.642.56 18.925 2.471 27.667 5.545v182.854h-27.667zm16.187-18.153c-7.183-1.327-14.583-2.026-22.143-2.026h-48.439v-27.126c27.358-14.41 46.063-43.119 46.063-76.129v-25.483c13.557 7.198 22.814 21.459 22.814 37.848 0 6.95-1.622 13.59-4.822 19.735-1.879 3.608-1.384 7.996 1.251 11.095 7.904 9.299 12.258 21.138 12.258 33.337-.001 9.579-2.603 20.08-6.982 28.749zm-180.393-219.159c0-17.968 14.617-32.585 32.584-32.585h74.831c17.968 0 32.585 14.617 32.585 32.585v19.415h-140zm-50.127 39.415h240c6.617 0 12 5.383 12 12s-5.383 12-12 12h-240c-6.617 0-12-5.383-12-12s5.383-12 12-12zm-132-85.704h93.087l-13.849 25.181c-1.651 3.001-1.651 6.638 0 9.639l13.849 25.18h-93.087zm105.36 80c-3.383 5.074-5.36 11.162-5.36 17.704 0 17.645 14.355 32 32 32h8.358c-10.484 11.231-16.919 26.289-16.919 42.828 0 7.86 1.497 15.7 4.365 22.999-8.456 12.003-13.052 26.395-13.052 41.168 0 8.829 1.589 18.042 4.51 26.707h-51.933l-35.863-98.346c-3.843-10.54-11.561-18.953-21.73-23.688-3.148-1.465-6.414-2.522-9.736-3.172v-58.2zm-120.889 78.78c5.521-2.013 11.496-1.756 16.823.724s9.369 6.887 11.383 12.408l4.197 11.509-40.468 16.927-5.086-13.417c-4.117-11.382 1.773-24.001 13.151-28.151zm31.682 146.421-32.654-86.141 40.234-16.83 27.204 74.602c1.439 3.947 5.192 6.574 9.395 6.574h49.668v54.396l-60.752-6.883c-15.047-1.703-27.728-11.558-33.095-25.718zm113.847-21.779h27.667v79.897c0 5.522 4.478 10 10 10s10-4.478 10-10v-44.076l22.889 35.471c1.639 2.539 4.338 4.201 7.343 4.521.354.038.708.057 1.061.057 2.637 0 5.185-1.044 7.07-2.929l35.971-35.971 35.971 35.971c1.886 1.885 4.434 2.929 7.07 2.929.353 0 .707-.019 1.061-.057 3.005-.32 5.704-1.982 7.343-4.521l22.889-35.471v87.843h-36.187c-5.522 0-10 4.478-10 10s4.478 10 10 10h36.187v44.914h-148.668v-18.682c0-5.522-4.478-10-10-10s-10 4.478-10 10v18.682h-27.667zm312 188.578h-48v-173.24c28.795 17.96 48 49.919 48 86.284z"/><path id="XMLID_1192_" d="m301.997 218.953c5.127 0 10.253-1.952 14.156-5.854 3.905-3.905 3.892-10.237-.014-14.143-3.906-3.904-10.252-3.903-14.156 0-3.906-3.904-10.236-3.904-14.143 0-3.905 3.905-3.905 10.237 0 14.143 3.904 3.902 9.03 5.854 14.157 5.854z"/><path id="XMLID_1193_" d="m217.667 438.319c2.63 0 5.21-1.069 7.07-2.93 1.859-1.86 2.93-4.439 2.93-7.07 0-2.63-1.07-5.21-2.93-7.069-1.87-1.86-4.44-2.931-7.07-2.931s-5.21 1.07-7.07 2.931c-1.87 1.859-2.93 4.439-2.93 7.069 0 2.631 1.06 5.21 2.93 7.07 1.86 1.861 4.43 2.93 7.07 2.93z"/></g></g></svg>